<?xml version="1.0" encoding="UTF-8" standalone="no"?>
<!DOCTYPE svg PUBLIC "-//W3C//DTD SVG 1.0//EN"
 "http://www.w3.org/TR/2001/REC-SVG-20010904/DTD/svg10.dtd">
<!-- Generated by neato version 1.13 (v16) (Mon August 23, 2004)
     For user: (miles) Miles Kaufmann   Title: sorted_binary_tree    Pages: 1 -->
<svg width="266pt" height="212pt"
 viewBox = "-1 -1 265 211"
 xmlns="http://www.w3.org/2000/svg">
<g id="graph0" class="graph" style="font-family:Times-Roman;font-size:14.00;">
<title>sorted_binary_tree</title>
<g id="node1" class="node"><title>C</title>
<ellipse cx="60" cy="185" rx="18" ry="18" style="fill:white;stroke:black;"/>
<text text-anchor="middle" x="60" y="190">C</text>
</g>
<g id="node2" class="node"><title>E</title>
<ellipse cx="132" cy="185" rx="18" ry="18" style="fill:white;stroke:black;"/>
<text text-anchor="middle" x="132" y="190">E</text>
</g>
<g id="node3" class="node"><title>H</title>
<ellipse cx="204" cy="185" rx="17" ry="18" style="fill:white;stroke:black;"/>
<text text-anchor="middle" x="204" y="190">H</text>
</g>
<g id="node4" class="node"><title>A</title>
<ellipse cx="24" cy="131" rx="17" ry="18" style="fill:white;stroke:black;"/>
<text text-anchor="middle" x="24" y="136">A</text>
</g>
<g id="node5" class="node"><title>D</title>
<ellipse cx="96" cy="131" rx="17" ry="18" style="fill:white;stroke:black;"/>
<text text-anchor="middle" x="96" y="136">D</text>
</g>
<g id="edge6" class="edge"><title>D-&gt;C</title>
<path style="fill:none;stroke:black;" d="M86,147C83,151 79,156 76,161"/>
<polygon style="fill:black;stroke:black;" points="78,164 70,170 73,160 78,164"/>
</g>
<g id="edge8" class="edge"><title>D-&gt;E</title>
<path style="fill:none;stroke:black;" d="M106,147C109,151 113,156 116,161"/>
<polygon style="fill:black;stroke:black;" points="119,160 122,170 114,164 119,160"/>
</g>
<g id="node6" class="node"><title>I</title>
<ellipse cx="240" cy="131" rx="18" ry="18" style="fill:white;stroke:black;"/>
<text text-anchor="middle" x="240" y="136">I</text>
</g>
<g id="edge12" class="edge"><title>I-&gt;H</title>
<path style="fill:none;stroke:black;" d="M230,146C227,151 224,156 220,161"/>
<polygon style="fill:black;stroke:black;" points="223,163 214,169 217,159 223,163"/>
</g>
<g id="node7" class="node"><title>B</title>
<ellipse cx="60" cy="77" rx="18" ry="18" style="fill:white;stroke:black;"/>
<text text-anchor="middle" x="60" y="82">B</text>
</g>
<g id="edge3" class="edge"><title>B-&gt;A</title>
<path style="fill:none;stroke:black;" d="M50,92C47,97 44,102 40,107"/>
<polygon style="fill:black;stroke:black;" points="43,109 34,115 37,105 43,109"/>
</g>
<g id="edge5" class="edge"><title>B-&gt;D</title>
<path style="fill:none;stroke:black;" d="M70,92C73,97 76,102 80,107"/>
<polygon style="fill:black;stroke:black;" points="83,105 86,115 77,109 83,105"/>
</g>
<g id="node8" class="node"><title>G</title>
<ellipse cx="204" cy="77" rx="17" ry="18" style="fill:white;stroke:black;"/>
<text text-anchor="middle" x="204" y="82">G</text>
</g>
<g id="edge11" class="edge"><title>G-&gt;I</title>
<path style="fill:none;stroke:black;" d="M214,93C217,97 221,102 224,107"/>
<polygon style="fill:black;stroke:black;" points="227,106 230,116 222,110 227,106"/>
</g>
<g id="node9" class="node"><title>F</title>
<ellipse cx="132" cy="23" rx="18" ry="18" style="fill:white;stroke:black;"/>
<text text-anchor="middle" x="132" y="28">F</text>
</g>
<g id="edge2" class="edge"><title>F-&gt;B</title>
<path style="fill:none;stroke:black;" d="M117,34C106,42 94,51 83,60"/>
<polygon style="fill:black;stroke:black;" points="85,63 75,66 81,57 85,63"/>
</g>
<g id="edge10" class="edge"><title>F-&gt;G</title>
<path style="fill:none;stroke:black;" d="M147,34C158,42 170,51 181,60"/>
<polygon style="fill:black;stroke:black;" points="183,57 189,66 179,63 183,57"/>
</g>
</g>
</svg>
